<?xml version="1.0" encoding="UTF-8"?>
<!-- Created with Inkscape (http://www.inkscape.org/) -->
<svg width="347.24" height="200.22" version="1.1" viewBox="0 0 347.24 200.22" xmlns="http://www.w3.org/2000/svg">
 <defs>
  <clipPath id="clipPath84">
   <path d="M 0,595.276 H 841.89 V 0 H 0 Z"/>
  </clipPath>
 </defs>
 <g transform="matrix(1.3333 0 0 -1.3333 0 793.7)">
  <g transform="translate(-290.73 222.56)">
   <g clip-path="url(#clipPath84)">
    <g transform="translate(294.73 325.07)">
     <path d="m0 0c1.8 4.179 3.343 12.15 3.921 21.407l0.9 14.785-3.471 8.808h11.379l13.371-34.136 12.278 34.136h11.443c-1.093-1.093-2.829-3.021-3.729-5.143l1.415-26.55c0.386-7.007 1.607-10.478 3.021-13.307h-15.621c1.864 2.829 2.571 7.907 2.314 13.307l-0.964 18.064c-2.507-3.728-4.95-8.164-6.622-12.985l-3.535-10.029v-8.357h-7.136l-13.371 34.135-0.643-10.478c-0.836-13.307 3.664-21.086 5.657-23.657z"/>
    </g>
    <g transform="translate(351.17 325.07)">
     <path d="m0 0c1.671 2.186 2.957 6.557 2.957 13.307v18.386c0 6.749-1.286 11.121-2.957 13.307h30.471l0.45-10.672h-0.129c-2.442 5.015-6.299 9.901-12.085 9.901-3.407 0-5.657-2.443-5.657-6.043 0-3.665 1.928-7.265 9.257-7.265h5.464v-9.707h-0.064c-5.143 5.529-7.843 8.679-11.186 9.964-0.964 0.386-2.443 0.579-3.214 0.579v-30.857c6.943 0.771 16.071 5.978 19.543 10.864l-0.258-11.764z"/>
    </g>
    <g transform="translate(388.07 370.07)">
     <path d="m0 0h12.793c-0.45-1.864 0.064-4.178 1.028-6.75l10.158-27.385c3.985 7.971 8.742 19.992 7.585 34.135h9.386c-1.865-2.7-3.857-7.585-5.593-12.021-3.793-9.643-6.878-16.071-11.378-24.236v-8.743h-7.329z"/>
    </g>
    <g transform="translate(434.68 325.07)">
     <path d="m0 0c1.671 2.186 2.958 6.557 2.958 13.307v18.386c0 6.749-1.287 11.121-2.958 13.307h16.2c-1.671-2.186-2.957-6.558-2.957-13.307v-18.386c0-6.75 1.286-11.121 2.957-13.307z"/>
    </g>
    <g transform="translate(459.56 325.07)">
     <path d="m0 0c1.672 2.186 2.957 6.557 2.957 13.307v18.386c0 6.749-1.285 11.121-2.957 13.307h16.2c-1.672-2.186-2.957-6.558-2.957-13.307v-30.793c6.943 0.836 16.071 5.978 19.542 10.864l-0.257-11.764z"/>
    </g>
    <g transform="translate(358.44 319.58)">
     <path d="m0 0c6.686 0 12.857-2.057 17.55-4.95v-16.522h-0.129c-2.893 9.322-10.928 20.122-20.764 20.122-8.1 0-12.343-6.557-12.343-15.236 0-13.372 9.836-22.564 21.921-22.564 3.6 0 10.608 1.414 13.758 8.679l0.257-0.129c-2.572-7.007-9-15.429-21.086-15.429-13.757 0-24.749 9.321-24.749 23.015 0 13.628 11.249 23.014 25.585 23.014"/>
    </g>
    <g transform="translate(399.51 296.96)">
     <path d="m0 0-4.05 10.993c-1.285-3.086-2.185-6.3-2.7-10.993zm6.3-22.886c0 3.729 0.129 5.464-3.021 14.014l-2.957 7.972h-7.136c-0.321-3.279-0.514-7.201-0.514-12.214 0-3.858 0.707-8.293 0.964-9.772h-11.7c1.607 3.086 3.471 7.136 4.564 10.929 3.407 11.764 6.943 19.735 9.064 23.978v10.093h6.686l10.415-26.614c3.856-9.836 6.557-15.172 8.678-18.386z"/>
    </g>
    <g transform="translate(442.71 297.02)">
     <path d="m0 0c4.436 5.4 6.493 9.836 6.493 14.271 0 4.179-1.222 6.943-5.465 6.943-2.378 0-3.985-1.543-4.821-5.914-2.121-11.186-4.628-22.307-6.943-33.428 2.25 7.071 7.843 14.657 10.736 18.128m-16.2-22.95c1.672 2.186 2.957 6.557 2.957 13.307v18.386c0 6.75-1.285 11.121-2.957 13.307h19.157c7.907 0 14.015-1.672 14.015-7.521 0-4.822-4.565-6.815-9.257-9.515l5.721-12.214c2.443-5.207 5.657-11.443 8.421-15.75h-15.235c0 2.7-2.186 9.707-4.243 14.335l-2.957 6.172c-3.086-5.849-2.122-14.657 1.093-20.507z"/>
    </g>
    <g transform="translate(466.05 308.14)">
     <path d="m0 0 1.221 10.928h33.557l1.221-10.928h-0.128c-3.343 5.593-7.007 9.514-9.386 9.9-2.25 0.386-3.342-0.579-3.342-4.372v-26.293c0-6.75 1.285-11.121 2.957-13.306h-16.201c1.672 2.185 2.957 6.556 2.957 13.306v26.293c0 3.729-1.028 4.758-3.342 4.372-2.893-0.514-6.75-5.464-9.386-9.9z"/>
    </g>
    <g transform="translate(522.49 317.53)">
     <path d="m0 0c-5.593 0.193-8.229-5.271-8.421-11.443-0.45-12.15 9.064-30.15 19.735-30.471 5.529-0.193 8.229 5.207 8.421 11.378 0.451 12.086-9.128 30.15-19.735 30.536m5.657-43.972c-12.728 0-23.013 10.222-23.013 23.015 0 12.664 10.22 23.014 22.949 23.014 12.728 0 23.078-10.286 23.078-23.014 0-12.665-10.285-23.015-23.014-23.015"/>
    </g>
    <g transform="translate(294.73 223.07)">
     <path d="m0 0c1.8 4.179 3.343 12.149 3.921 21.407l0.9 14.785-3.471 8.807h11.379l13.371-34.135 12.278 34.135h11.443c-1.093-1.093-2.829-3.02-3.729-5.143l1.415-26.549c0.386-7.007 1.607-10.479 3.021-13.307h-15.621c1.864 2.828 2.571 7.907 2.314 13.307l-0.964 18.064c-2.507-3.728-4.95-8.164-6.622-12.985l-3.535-10.03v-8.356h-7.136l-13.371 34.135-0.643-10.478c-0.836-13.307 3.664-21.086 5.657-23.657z"/>
    </g>
    <g transform="translate(368.79 245.96)">
     <path d="m0 0-4.05 10.992c-1.285-3.086-2.185-6.3-2.7-10.992zm6.3-22.886c0 3.729 0.129 5.464-3.021 14.014l-2.957 7.972h-7.136c-0.321-3.279-0.514-7.201-0.514-12.214 0-3.858 0.707-8.293 0.964-9.772h-11.7c1.607 3.086 3.471 7.136 4.564 10.929 3.407 11.764 6.943 19.735 9.064 23.978v10.092h6.686l10.415-26.613c3.856-9.836 6.557-15.172 8.678-18.386z"/>
    </g>
    <g transform="translate(395.46 223.07)">
     <path d="m0 0c1.671 2.957 3.921 10.285 3.921 21.407v17.421l-3.921 6.171h12.536l19.864-30.406v9c0 11.121-2.636 18.449-4.565 21.406h10.029c-1.928-2.957-4.564-10.285-4.564-21.406v-23.593h-4.886c-2.893 6.429-14.4 23.335-23.593 37.414v-16.007c0-11.122 3.344-18.45 5.85-21.407z"/>
    </g>
    <g transform="translate(464.89 268.58)">
     <path d="m0 0c6.686 0 12.857-2.057 17.55-4.95v-16.522h-0.128c-2.894 9.323-10.929 20.122-20.765 20.122-8.099 0-12.343-6.557-12.343-15.236 0-13.371 9.836-22.563 21.921-22.563 3.601 0 10.608 1.414 13.758 8.678l0.257-0.129c-2.571-7.006-9-15.428-21.086-15.428-13.757 0-24.749 9.321-24.749 23.014 0 13.628 11.249 23.014 25.585 23.014"/>
    </g>
    <g transform="translate(490.93 223.07)">
     <path d="m0 0c1.672 2.186 2.957 6.557 2.957 13.307v18.385c0 6.75-1.285 11.121-2.957 13.307h16.2c-1.672-2.186-2.957-6.557-2.957-13.307v-18.385c0-6.75 1.285-11.121 2.957-13.307z"/>
    </g>
    <g transform="translate(515.8 223.07)">
     <path d="m0 0c1.672 2.186 2.957 6.557 2.957 13.307v18.385c0 6.75-1.285 11.121-2.957 13.307h30.472l0.449-10.671h-0.128c-2.443 5.015-6.3 9.901-12.086 9.901-3.407 0-5.657-2.444-5.657-6.043 0-3.665 1.929-7.265 9.257-7.265h5.464v-9.707h-0.064c-5.143 5.528-7.843 8.679-11.186 9.964-0.964 0.385-2.443 0.579-3.214 0.579v-30.858c6.943 0.772 16.071 5.979 19.543 10.865l-0.257-11.764z"/>
    </g>
    <g transform="translate(509.02 355.16)">
     <path d="m0 0c-1.562 3.027-2.693 6.165-2.62 9.648 0.123 5.892 3.703 8.787 9.532 7.687 5.351-1.01 9.921-3.593 14.005-7.067 5.811-4.943 10.587-10.732 13.208-17.972 0.914-2.525 1.437-5.36 1.375-8.035-0.16-6.939-4.867-11.271-11.828-11.361-5.873-0.075-11.027 2.134-15.945 5.07-0.891 0.531-1.779 1.068-2.662 1.612-3.96 2.439-6.335 2.205-9.766-0.955-0.495-0.456-1.776-1.114-1.902-1.009 0.168 0.301 0.305 0.625 0.51 0.899 0.932 1.24 2.003 2.393 2.801 3.712 1.783 2.945 1.384 5.977-1.049 9.073-0.748 0.951-1.542 1.865-2.159 3.012 2.796-1.499 4.904-4.253 8.431-4.224 3.507 0.029 5.674 2.557 8.21 4.419 0.131-0.146-0.335-1.315-0.732-1.722-4.076-4.183-4.148-6.557-0.103-10.696 3.184-3.257 6.998-5.499 11.495-6.457"/>
    </g>
    <g transform="translate(306.42 271.58)">
     <path d="m0 0c0 1.372 0.084 2.751-0.016 4.116-0.282 3.818-0.532 7.644-1.001 11.441-0.386 3.134-1.053 3.418-3.786 1.704-1.775-1.114-3.374-2.51-5.051-3.781-0.341-0.259-0.678-0.525-1.372-0.516 0.442 0.581 0.915 1.142 1.32 1.747 1.413 2.106 2.872 4.187 4.175 6.36 0.777 1.298 0.229 2.235-1.279 2.391-2.221 0.228-4.452 0.355-6.678 0.528-0.657 0.05-1.313 0.108-1.969 0.163-0.011 0.2-0.023 0.4-0.035 0.6 0.615 0.076 1.228 0.174 1.846 0.224 2.285 0.185 4.572 0.371 6.86 0.523 1.68 0.113 2.017 1.103 1.293 2.337-1.283 2.184-2.746 4.264-4.174 6.36-0.396 0.582-0.932 1.067-1.404 1.597 0.129 0.128 0.258 0.256 0.388 0.384 1.408-1.114 2.773-2.29 4.235-3.33 4.575-3.256 5.547-2.843 6.021 2.69 0.327 3.817 0.441 7.653 0.668 11.479 0.038 0.63 0.169 1.255 0.257 1.882l0.569-0.018c0.071-0.7 0.154-1.398 0.209-2.098 0.363-4.644 0.643-9.295 1.109-13.928 0.242-2.413 0.809-2.711 2.961-1.523 1.826 1.008 3.469 2.354 5.168 3.584 0.547 0.396 1.017 0.898 1.522 1.352 0.142-0.117 0.283-0.234 0.424-0.35-0.462-0.584-0.97-1.138-1.377-1.758-1.392-2.119-2.811-4.224-4.092-6.41-0.717-1.224-0.274-2.111 1.228-2.237 2.223-0.186 4.449-0.333 6.673-0.51 0.71-0.056 1.416-0.153 2.125-0.231l-3e-3 -0.594c-0.638-0.06-1.275-0.13-1.914-0.18-2.289-0.181-4.584-0.315-6.867-0.549-1.412-0.145-1.955-1.004-1.222-2.262 1.244-2.137 2.591-4.216 3.95-6.283 0.437-0.665 1.048-1.216 1.58-1.819-0.112-0.14-0.224-0.281-0.336-0.421-0.439 0.331-0.875 0.666-1.318 0.991-1.795 1.321-3.498 2.8-5.413 3.913-2.199 1.279-2.812 0.962-3.084-1.555-0.479-4.439-0.754-8.901-1.111-13.353-0.071-0.895-0.129-1.791-0.193-2.687-0.295 9e-3 -0.591 0.018-0.886 0.027"/>
    </g>
   </g>
  </g>
 </g>
</svg>
